IKResults
version=1
nRows=10
nColumns=63
inDegrees=yes

Units are S.I. units (second, meters, Newtons, ...)
If the header above contains a line with 'inDegrees', this indicates whether rotational values are in degrees (yes) or radians (no).

endheader
time	pelvis_tilt	pelvis_list	pelvis_rotation	pelvis_tx	pelvis_ty	pelvis_tz	hip_flexion_r	hip_adduction_r	hip_rotation_r	knee_angle_r	knee_angle_r_beta	ankle_angle_r	subtalar_angle_r	mtp_angle_r	hip_flexion_l	hip_adduction_l	hip_rotation_l	knee_angle_l	knee_angle_l_beta	ankle_angle_l	subtalar_angle_l	mtp_angle_l	L5_S1_Flex_Ext	L5_S1_Lat_Bending	L5_S1_axial_rotation	L4_L5_Flex_Ext	L4_L5_Lat_Bending	L4_L5_axial_rotation	L3_L4_Flex_Ext	L3_L4_Lat_Bending	L3_L4_axial_rotation	L2_L3_Flex_Ext	L2_L3_Lat_Bending	L2_L3_axial_rotation	L1_L2_Flex_Ext	L1_L2_Lat_Bending	L1_L2_axial_rotation	L1_T12_Flex_Ext	L1_T12_Lat_Bending	L1_T12_axial_rotation	Abs_r3	Abs_r2	Abs_r1	Abs_t1	Abs_t2	neck_flexion	neck_bending	neck_rotation	arm_flex_r	arm_add_r	arm_rot_r	elbow_flex_r	pro_sup_r	wrist_flex_r	wrist_dev_r	arm_flex_l	arm_add_l	arm_rot_l	elbow_flex_l	pro_sup_l	wrist_flex_l	wrist_dev_l
      6.03333333	     64.86686062	      1.54293306	      9.16548745	     -0.64649070	      0.66550185	     -0.35504975	      2.77593935	    -27.83872669	    -19.30472641	     87.48817754	      1.52695675	     21.91270975	      5.39106274	      0.00000000	     13.41992895	    -12.18498210	     -1.89034065	     92.98242119	      1.62284940	     17.96613105	    -17.63788240	      0.00000000	     -7.89595578	     -0.24605799	     -2.48571056	    -14.66357947	     -0.32725712	     -2.64106747	    -12.97226575	     -0.59826539	     -2.64106747	     -9.02428786	     -0.59826539	     -2.17499674	     -7.33218453	     -0.50176145	     -2.01963983	     -4.51174913	     -0.38114382	     -1.86428292	    -56.40002252	     -2.78345717	    -13.82477641	      0.00000000	      0.00000000	     24.08902353	      3.41171932	     -5.86829763	     17.95619185	     -6.71389566	      1.85601519	     34.72758666	     89.99559364	      0.00000000	      0.00000000	     22.19456390	    -19.86265876	     21.45291185	     33.94685791	     89.99559364	      0.00000000	      0.00000000
      6.06666667	     64.88024598	      1.54363293	      9.16476243	     -0.64657370	      0.66540600	     -0.35506200	      2.77579059	    -27.84096700	    -19.30240101	     87.48669188	      1.52693083	     21.91385343	      5.38771267	      0.00000000	     13.41902292	    -12.18766132	     -1.88729089	     92.98075449	      1.62282031	     17.96345662	    -17.60722304	      0.00000000	     -7.89420976	     -0.24591395	     -2.48573213	    -14.66033694	     -0.32706556	     -2.64109039	    -12.96939721	     -0.59791518	     -2.64109039	     -9.02229233	     -0.59791518	     -2.17501561	     -7.33056318	     -0.50146773	     -2.01965735	     -4.51075146	     -0.38092071	     -1.86429910	    -56.38755088	     -2.78182782	    -13.82489637	      0.00000000	      0.00000000	     24.07388213	      3.41161341	     -5.86883531	     17.95527443	     -6.71461756	      1.85452763	     34.73030099	     89.99559364	      0.00000000	      0.00000000	     22.19363050	    -19.86046532	     21.45332554	     33.94765015	     89.99559364	      0.00000000	      0.00000000
      6.10000000	     64.57170075	      1.60306171	      9.44067442	     -0.64616254	      0.66497736	     -0.35554215	      2.91180719	    -28.05827202	    -19.68326753	     87.51268566	      1.52738450	     21.92761081	      5.37283647	      0.00000000	     13.90851396	    -11.95513195	     -1.60813238	     93.06626272	      1.62431271	     17.62291398	    -17.96185137	      0.00000000	     -7.84166143	     -0.23337030	     -2.49128833	    -14.56274944	     -0.31038249	     -2.64699385	    -12.88306556	     -0.56741654	     -2.64699385	     -8.96223485	     -0.56741654	     -2.17987729	     -7.28176680	     -0.47588871	     -2.02417176	     -4.48072534	     -0.36149059	     -1.86846624	    -56.01220343	     -2.63993145	    -13.85579828	      0.00000000	      0.00000000	     24.18901496	      3.35380068	     -6.53304174	     17.57790680	     -6.77030679	      1.32787280	     35.11098466	     89.99559364	      0.00000000	      0.00000000	     22.39004361	    -19.59772351	     21.50950675	     33.41723907	     89.99559364	      0.00000000	      0.00000000
      6.13333333	     64.58142278	      1.60472826	      9.43785352	     -0.64625340	      0.66491171	     -0.35552710	      2.90745204	    -28.05895543	    -19.67955746	     87.51270263	      1.52738480	     21.92824185	      5.37008508	      0.00000000	     13.90791054	    -11.95623251	     -1.60654299	     93.06501363	      1.62429091	     17.62237394	    -17.93046620	      0.00000000	     -7.83987286	     -0.23304071	     -2.49072800	    -14.55942789	     -0.30994414	     -2.64639850	    -12.88012712	     -0.56661518	     -2.64639850	     -8.96019069	     -0.56661518	     -2.17938700	     -7.28010594	     -0.47521661	     -2.02371650	     -4.47970335	     -0.36098006	     -1.86804600	    -55.99942784	     -2.63620311	    -13.85268192	      0.00000000	      0.00000000	     24.17574702	      3.35379023	     -6.53338192	     17.58140832	     -6.76731259	      1.32722485	     35.11273401	     89.99559364	      0.00000000	      0.00000000	     22.38904772	    -19.59718634	     21.51018630	     33.41863568	     89.99559364	      0.00000000	      0.00000000
      6.16666667	     64.58545769	      1.60769361	      9.43171998	     -0.64618882	      0.66488817	     -0.35549724	      2.88634948	    -28.06636613	    -19.67630922	     87.51374868	      1.52740306	     21.92923425	      5.36209826	      0.00000000	     13.89667510	    -11.96191564	     -1.59953298	     93.06233347	      1.62424413	     17.61740108	    -17.89098711	      0.00000000	     -7.83321513	     -0.23262352	     -2.48743633	    -14.54706382	     -0.30938928	     -2.64290110	    -12.86918914	     -0.56560082	     -2.64290110	     -8.95258157	     -0.56560082	     -2.17650679	     -7.27392357	     -0.47436588	     -2.02104202	     -4.47589913	     -0.36033383	     -1.86557725	    -55.95187237	     -2.63148376	    -13.83437466	      0.00000000	      0.00000000	     24.16940338	      3.35331744	     -6.53884556	     17.59431445	     -6.76137368	      1.32244720	     35.11100266	     89.99559364	      0.00000000	      0.00000000	     22.38456864	    -19.59114415	     21.51462694	     33.41722657	     89.99559364	      0.00000000	      0.00000000
      6.20000000	     64.59221251	      1.61250503	      9.42626747	     -0.64625565	      0.66483924	     -0.35546602	      2.87917507	    -28.06637709	    -19.67317589	     87.51403098	      1.52740798	     21.92860833	      5.35863804	      0.00000000	     13.89550061	    -11.96239386	     -1.59842071	     93.06062259	      1.62421427	     17.61624832	    -17.86075469	      0.00000000	     -7.83076836	     -0.23240405	     -2.48655581	    -14.54251992	     -0.30909738	     -2.64196555	    -12.86516934	     -0.56506720	     -2.64196555	     -8.94978516	     -0.56506720	     -2.17573634	     -7.27165150	     -0.47391834	     -2.02032660	     -4.47450104	     -0.35999387	     -1.86491686	    -55.93439533	     -2.62900108	    -13.82947747	      0.00000000	      0.00000000	     24.15946001	      3.35329509	     -6.54012142	     17.59508586	     -6.76075371	      1.32106388	     35.11064374	     89.99559364	      0.00000000	      0.00000000	     22.38266678	    -19.58894577	     21.51619763	     33.41753404	     89.99559364	      0.00000000	      0.00000000
      6.23333333	     64.55490128	      1.61669248	      9.41136792	     -0.64586689	      0.66501829	     -0.35538133	      2.84878912	    -28.09992835	    -19.73034858	     87.51033332	      1.52734345	     21.92947596	      5.30234156	      0.00000000	     13.88177788	    -11.97055250	     -1.60034308	     93.04091639	      1.62387033	     17.62179364	    -17.83163706	      0.00000000	     -7.81421020	     -0.23224119	     -2.46936381	    -14.51176977	     -0.30888079	     -2.62369905	    -12.83796594	     -0.56467124	     -2.62369905	     -8.93086084	     -0.56467124	     -2.16069333	     -7.25627559	     -0.47358624	     -2.00635810	     -4.46503971	     -0.35974161	     -1.85202286	    -55.81612205	     -2.62715884	    -13.73386070	      0.00000000	      0.00000000	     24.31964525	      3.36244921	     -6.63323388	     17.51446867	     -6.77314928	      1.27983879	     34.98157998	     89.99559364	      0.00000000	      0.00000000	     22.34669548	    -19.53342268	     21.56047990	     33.35054409	     89.99559364	      0.00000000	      0.00000000
      6.26666667	     64.55462321	      1.62263212	      9.40919811	     -0.64587792	      0.66500725	     -0.35535675	      2.83608471	    -28.09785366	    -19.72507568	     87.51286678	      1.52738766	     21.92435346	      5.29698077	      0.00000000	     13.87557337	    -11.96956404	     -1.60059263	     93.04131703	      1.62387732	     17.62601722	    -17.80537279	      0.00000000	     -7.80971781	     -0.23203999	     -2.46822719	    -14.50342695	     -0.30861319	     -2.62249139	    -12.83058539	     -0.56418203	     -2.62249139	     -8.92572649	     -0.56418203	     -2.15969879	     -7.25210396	     -0.47317595	     -2.00543459	     -4.46247276	     -0.35942994	     -1.85117039	    -55.78403335	     -2.62488277	    -13.72753917	      0.00000000	      0.00000000	     24.32196631	      3.36405561	     -6.64337138	     17.53268166	     -6.77082367	      1.27443303	     34.97957086	     89.99559364	      0.00000000	      0.00000000	     22.36251447	    -19.52985652	     21.56273323	     33.34809286	     89.99559364	      0.00000000	      0.00000000
      6.30000000	     64.55546403	      1.62798415	      9.40337719	     -0.64591764	      0.66498212	     -0.35530487	      2.83039772	    -28.09628128	    -19.72183903	     87.51360316	      1.52740052	     21.92040024	      5.29411226	      0.00000000	     13.87325456	    -11.96941857	     -1.59978947	     93.04031641	      1.62385986	     17.62882781	    -17.78168423	      0.00000000	     -7.80762232	     -0.23183516	     -2.46784531	    -14.49953541	     -0.30834076	     -2.62208564	    -12.82714271	     -0.56368401	     -2.62208564	     -8.92333155	     -0.56368401	     -2.15936465	     -7.25015809	     -0.47275826	     -2.00512431	     -4.46127539	     -0.35911266	     -1.85088398	    -55.76906548	     -2.62256571	    -13.72541525	      0.00000000	      0.00000000	     24.31666621	      3.36464904	     -6.64634564	     17.53583798	     -6.76976197	      1.27277269	     34.97881393	     89.99559364	      0.00000000	      0.00000000	     22.36600583	    -19.52818397	     21.56394846	     33.34781944	     89.99559364	      0.00000000	      0.00000000
      6.33333333	     64.52705157	      1.61053502	      9.38850962	     -0.64575551	      0.66505030	     -0.35529860	      2.85131526	    -28.10457186	    -19.75425837	     87.53378848	      1.52775282	     21.77601357	      5.17759683	      0.00000000	     13.84233704	    -11.98293085	     -1.61557918	     93.00662204	      1.62327178	     17.86080161	    -17.74008232	      0.00000000	     -7.80212273	     -0.23124612	     -2.45167530	    -14.48932213	     -0.30755733	     -2.60490501	    -12.81810744	     -0.56225181	     -2.60490501	     -8.91704607	     -0.56225181	     -2.14521589	     -7.24505117	     -0.47155708	     -1.99198618	     -4.45813293	     -0.35820023	     -1.83875647	    -55.72978248	     -2.61590231	    -13.63548251	      0.00000000	      0.00000000	     24.79483857	      3.44988376	     -6.99036289	     17.53499113	     -6.76516693	      1.16505468	     34.78064229	     89.99559364	      0.00000000	      0.00000000	     22.43072561	    -19.44600600	     21.65010904	     33.19321520	     89.99559364	      0.00000000	      0.00000000
